<?xml version="1.0" encoding="utf-8"?>
<!-- Generator: Adobe Illustrator 23.0.3, SVG Export Plug-In . SVG Version: 6.00 Build 0)  -->
<svg version="1.1" id="Layer_1" xmlns="http://www.w3.org/2000/svg" xmlns:xlink="http://www.w3.org/1999/xlink" x="0px" y="0px"
	 viewBox="0 0 512 512" style="enable-background:new 0 0 512 512;" xml:space="preserve">
<style type="text/css">
	.st0{fill:none;}
	.st1{fill:none;stroke:#151021;stroke-width:40;stroke-miterlimit:10;}
</style>
<title>Settings</title>
<path class="st0" d="M0,0"/>
<g transform="translate(-2.953 -2.1)">
	<circle class="st1" cx="259" cy="258.1" r="61.8"/>
	<path class="st1" d="M440.7,171l-15.5-26.8c-8.5-14.8-27.4-19.9-42.2-11.3c0,0,0,0,0,0l-8.1,4.7c-22.2,12.8-50.6,5.2-63.4-17
		c-4.1-7-6.2-15-6.2-23.2v-9.4c0-17.1-13.8-30.9-30.9-30.9h-30.9c-17.1,0-30.9,13.8-30.9,30.9c0,0,0,0,0,0v9.4
		c0,25.6-20.8,46.4-46.4,46.3c-8.1,0-16.1-2.1-23.2-6.2l-8.2-4.7c-14.8-8.5-33.7-3.5-42.2,11.3c0,0,0,0,0,0L77.2,171
		c-8.5,14.8-3.5,33.7,11.3,42.2l8.1,4.7c22.2,12.8,29.8,41.2,17,63.3c-4.1,7-9.9,12.9-17,17l-8.1,4.7c-14.8,8.5-19.9,27.4-11.3,42.2
		c0,0,0,0,0,0l15.4,26.8c8.5,14.8,27.4,19.9,42.2,11.3c0,0,0,0,0,0l8.1-4.7c22.2-12.8,50.5-5.2,63.3,17c4.1,7,6.2,15,6.2,23.2v9.4
		c0,17.1,13.8,30.9,30.8,31c0,0,0,0,0.1,0h30.9c17.1,0,30.9-13.8,30.9-30.9c0,0,0,0,0,0v-9.4c0-25.6,20.7-46.4,46.3-46.4
		c8.1,0,16.2,2.1,23.2,6.2l8.1,4.7c14.8,8.5,33.7,3.5,42.2-11.3c0,0,0,0,0,0l15.4-26.8c8.5-14.8,3.5-33.7-11.3-42.2c0,0,0,0,0,0
		l-8.1-4.7c-22.2-12.8-29.8-41.2-17-63.3c4.1-7,9.9-12.9,17-17l8.1-4.7C444.2,204.6,449.2,185.8,440.7,171z"/>
</g>
</svg>
